<svg width="660" height="615" viewBox="0 0 660 615" fill="none" xmlns="http://www.w3.org/2000/svg">
<g filter="url(#filter0_d_389_52)">
<path fill-rule="evenodd" clip-rule="evenodd" d="M384.99 169.413L378.263 154.586C368.669 133.42 352.719 114.845 332.615 101.423L318.595 92.061C309.318 85.8658 299.635 80.128 289.093 77.0183C223.129 57.601 144.048 94.7295 52.5437 237.663C34.1076 266.462 20.6911 302.922 41.6865 334.673C48.8324 345.528 58.2883 354.988 69.3476 362.344C81.644 370.814 95.8861 375.897 110.272 376.949C123.268 377.824 136.194 376.324 149.119 374.823C165.072 372.957 181.025 371.09 197.041 373.691C214.491 376.526 231.465 383.258 246.535 393.32L292.327 423.898C307.4 433.963 320.12 447.057 329.437 462.072C337.964 475.889 342.353 491.339 346.765 506.804C350.332 519.319 353.9 531.833 359.643 543.47C365.134 554.591 374.269 565.96 388.838 575.689C399.871 583.085 412.232 588.194 424.997 590.635C462.37 597.86 490.919 571.476 510.441 543.431C607.397 404.139 611.387 316.867 568.161 263.4C561.239 254.818 552.183 248.043 542.951 241.878L528.932 232.516C508.823 219.093 485.549 211.486 462.32 210.745L446.061 210.194C433.424 209.785 420.764 205.643 409.826 198.339C398.888 191.035 390.211 180.929 384.99 169.413ZM485.799 320.173C490.356 323.216 493.663 327.725 494.994 332.709C496.325 337.693 495.57 342.743 492.895 346.748C490.221 350.753 485.845 353.386 480.732 354.066C475.619 354.747 470.186 353.42 465.63 350.377C461.073 347.335 457.766 342.825 456.435 337.842C455.104 332.858 455.859 327.808 458.534 323.803C461.209 319.797 465.584 317.165 470.697 316.484C475.81 315.804 481.243 317.131 485.799 320.173ZM270.544 183.712C275.1 186.754 278.408 191.264 279.738 196.247C281.069 201.231 280.314 206.281 277.64 210.286L267.555 225.388L284.736 236.861C289.292 239.904 292.6 244.413 293.93 249.397C295.261 254.38 294.506 259.43 291.832 263.435C289.157 267.441 284.782 270.073 279.669 270.754C274.555 271.435 269.123 270.108 264.566 267.065L247.386 255.592L237.301 270.694C234.627 274.699 230.251 277.332 225.138 278.013C220.025 278.693 214.593 277.366 210.036 274.324C205.479 271.281 202.172 266.772 200.841 261.788C199.51 256.804 200.265 251.754 202.94 247.749L213.025 232.647L195.844 221.174C191.287 218.132 187.98 213.622 186.649 208.639C185.318 203.655 186.073 198.605 188.748 194.6C191.423 190.594 195.798 187.962 200.911 187.281C206.024 186.601 211.457 187.928 216.013 190.97L233.194 202.443L243.278 187.341C245.953 183.336 250.328 180.703 255.441 180.023C260.555 179.342 265.987 180.669 270.544 183.712ZM507.087 399.897C504.413 403.902 500.037 406.535 494.924 407.216C489.811 407.896 484.378 406.569 479.822 403.527C475.265 400.484 471.958 395.975 470.627 390.991C469.296 386.007 470.051 380.957 472.726 376.952C475.401 372.947 479.776 370.314 484.889 369.633C490.002 368.953 495.435 370.28 499.991 373.323C504.548 376.365 507.855 380.875 509.186 385.858C510.517 390.842 509.762 395.892 507.087 399.897ZM411.1 357.636C415.656 360.679 421.089 362.006 426.202 361.325C431.315 360.644 435.69 358.012 438.365 354.007C441.039 350.001 441.794 344.951 440.464 339.968C439.133 334.984 435.825 330.475 431.269 327.432C426.712 324.389 421.28 323.062 416.167 323.743C411.053 324.424 406.678 327.056 404.004 331.061C401.329 335.067 400.574 340.117 401.905 345.1C403.235 350.084 406.543 354.593 411.1 357.636ZM452.557 407.156C455.231 403.151 455.986 398.101 454.656 393.117C453.325 388.133 450.017 383.624 445.461 380.581C440.904 377.539 435.472 376.212 430.358 376.892C425.245 377.573 420.87 380.205 418.196 384.211C415.521 388.216 414.766 393.266 416.097 398.25C417.427 403.233 420.735 407.743 425.292 410.785C429.848 413.828 435.281 415.155 440.394 414.474C445.507 413.794 449.882 411.161 452.557 407.156Z" fill="#FC325F" fill-opacity="0.8" shape-rendering="crispEdges"/>
</g>
<g filter="url(#filter1_d_389_52)">
<path fill-rule="evenodd" clip-rule="evenodd" d="M384.99 155.413L378.263 140.586C368.669 119.42 352.719 100.845 332.615 87.4226L318.595 78.061C309.318 71.8658 299.635 66.128 289.093 63.0183C223.129 43.601 144.048 80.7295 52.5437 223.663C34.1076 252.462 20.6911 288.922 41.6865 320.673C48.8324 331.528 58.2883 340.988 69.3476 348.344C81.644 356.814 95.8861 361.897 110.272 362.949C123.268 363.824 136.194 362.324 149.119 360.823C165.072 358.957 181.025 357.09 197.041 359.691C214.491 362.526 231.465 369.258 246.535 379.32L292.327 409.898C307.4 419.963 320.12 433.057 329.437 448.072C337.964 461.889 342.353 477.339 346.765 492.804C350.332 505.319 353.9 517.833 359.643 529.47C365.134 540.591 374.269 551.96 388.838 561.689C399.871 569.085 412.232 574.194 424.997 576.635C462.37 583.86 490.919 557.476 510.441 529.431C607.397 390.139 611.387 302.867 568.161 249.4C561.239 240.818 552.183 234.043 542.951 227.878L528.932 218.516C508.823 205.093 485.549 197.486 462.32 196.745L446.061 196.194C433.424 195.785 420.764 191.643 409.826 184.339C398.888 177.035 390.211 166.929 384.99 155.413ZM485.799 306.173C490.356 309.216 493.663 313.725 494.994 318.709C496.325 323.693 495.57 328.743 492.895 332.748C490.221 336.753 485.845 339.386 480.732 340.066C475.619 340.747 470.186 339.42 465.63 336.377C461.073 333.335 457.766 328.825 456.435 323.842C455.104 318.858 455.859 313.808 458.534 309.803C461.209 305.797 465.584 303.165 470.697 302.484C475.81 301.804 481.243 303.131 485.799 306.173ZM270.544 169.712C275.1 172.754 278.408 177.264 279.738 182.247C281.069 187.231 280.314 192.281 277.64 196.286L267.555 211.388L284.736 222.861C289.292 225.904 292.6 230.413 293.93 235.397C295.261 240.38 294.506 245.43 291.832 249.435C289.157 253.441 284.782 256.073 279.669 256.754C274.555 257.435 269.123 256.108 264.566 253.065L247.386 241.592L237.301 256.694C234.627 260.699 230.251 263.332 225.138 264.013C220.025 264.693 214.593 263.366 210.036 260.324C205.479 257.281 202.172 252.772 200.841 247.788C199.51 242.804 200.265 237.754 202.94 233.749L213.025 218.647L195.844 207.174C191.287 204.132 187.98 199.622 186.649 194.639C185.318 189.655 186.073 184.605 188.748 180.6C191.423 176.594 195.798 173.962 200.911 173.281C206.024 172.601 211.457 173.928 216.013 176.97L233.194 188.443L243.278 173.341C245.953 169.336 250.328 166.703 255.441 166.023C260.555 165.342 265.987 166.669 270.544 169.712ZM507.087 385.897C504.413 389.902 500.037 392.535 494.924 393.216C489.811 393.896 484.378 392.569 479.822 389.527C475.265 386.484 471.958 381.975 470.627 376.991C469.296 372.007 470.051 366.957 472.726 362.952C475.401 358.947 479.776 356.314 484.889 355.633C490.002 354.953 495.435 356.28 499.991 359.323C504.548 362.365 507.855 366.875 509.186 371.858C510.517 376.842 509.762 381.892 507.087 385.897ZM411.1 343.636C415.656 346.679 421.089 348.006 426.202 347.325C431.315 346.644 435.69 344.012 438.365 340.007C441.039 336.001 441.794 330.951 440.464 325.968C439.133 320.984 435.825 316.475 431.269 313.432C426.712 310.389 421.28 309.062 416.167 309.743C411.053 310.424 406.678 313.056 404.004 317.061C401.329 321.067 400.574 326.117 401.905 331.1C403.235 336.084 406.543 340.593 411.1 343.636ZM452.557 393.156C455.231 389.151 455.986 384.101 454.656 379.117C453.325 374.133 450.017 369.624 445.461 366.581C440.904 363.539 435.472 362.212 430.358 362.892C425.245 363.573 420.87 366.205 418.196 370.211C415.521 374.216 414.766 379.266 416.097 384.25C417.427 389.233 420.735 393.743 425.292 396.785C429.848 399.828 435.281 401.155 440.394 400.474C445.507 399.794 449.882 397.161 452.557 393.156Z" fill="#FF99B0"/>
</g>
<defs>
<filter id="filter0_d_389_52" x="27.0195" y="72.2424" width="571.461" height="527.6" filterUnits="userSpaceOnUse" color-interpolation-filters="sRGB">
<feFlood flood-opacity="0" result="BackgroundImageFix"/>
<feColorMatrix in="SourceAlpha" type="matrix" values="0 0 0 0 0 0 0 0 0 0 0 0 0 0 0 0 0 0 127 0" result="hardAlpha"/>
<feOffset dy="4"/>
<feGaussianBlur stdDeviation="2"/>
<feComposite in2="hardAlpha" operator="out"/>
<feColorMatrix type="matrix" values="0 0 0 0 0 0 0 0 0 0 0 0 0 0 0 0 0 0 0.25 0"/>
<feBlend mode="normal" in2="BackgroundImageFix" result="effect1_dropShadow_389_52"/>
<feBlend mode="normal" in="SourceGraphic" in2="effect1_dropShadow_389_52" result="shape"/>
</filter>
<filter id="filter1_d_389_52" x="27.0195" y="58.2424" width="571.461" height="527.6" filterUnits="userSpaceOnUse" color-interpolation-filters="sRGB">
<feFlood flood-opacity="0" result="BackgroundImageFix"/>
<feColorMatrix in="SourceAlpha" type="matrix" values="0 0 0 0 0 0 0 0 0 0 0 0 0 0 0 0 0 0 127 0" result="hardAlpha"/>
<feOffset dy="4"/>
<feGaussianBlur stdDeviation="2"/>
<feComposite in2="hardAlpha" operator="out"/>
<feColorMatrix type="matrix" values="0 0 0 0 0 0 0 0 0 0 0 0 0 0 0 0 0 0 0.25 0"/>
<feBlend mode="normal" in2="BackgroundImageFix" result="effect1_dropShadow_389_52"/>
<feBlend mode="normal" in="SourceGraphic" in2="effect1_dropShadow_389_52" result="shape"/>
</filter>
</defs>
</svg>
