<svg width="283" height="251" viewBox="0 0 283 251" fill="none" xmlns="http://www.w3.org/2000/svg">
<g filter="url(#filter0_d_389_55)">
<path fill-rule="evenodd" clip-rule="evenodd" d="M170.053 225.514C185.404 221.304 199.816 214.292 212.418 204.901C225.021 195.511 235.553 183.936 243.379 170.875C251.206 157.815 256.164 143.539 257.954 128.911C259.745 114.282 258.331 99.6028 253.798 85.7594C256.618 81.7857 259.215 77.8873 261.595 74.0902C263.016 71.795 263.46 69.1229 262.836 66.6207C262.212 64.1185 260.568 61.9755 258.239 60.6302C255.911 59.285 253.075 58.8392 250.311 59.3842C247.547 59.9291 245.065 61.4236 243.372 63.5617C235.229 50.6712 224.158 39.6446 210.884 31.2039C214.953 29.3891 218.835 27.7797 222.514 26.4353C225.263 25.4256 227.516 23.4627 228.776 20.9783C230.037 18.494 230.203 15.6917 229.237 13.1881C228.27 10.6844 226.252 8.68433 223.625 7.62792C220.997 6.57152 217.977 6.54528 215.228 7.55498C209.347 9.72676 203.19 12.3378 196.834 15.3945C194.244 16.6266 192.232 18.7284 191.23 21.2495C170.229 13.0247 146.78 10.8755 123.853 15.074C100.926 19.2726 79.5512 29.6301 62.4368 44.8348C45.3225 60.0395 33.2381 79.4074 27.714 100.486C22.19 121.564 23.4748 143.404 31.4057 163.241C29.4635 163.28 27.544 163.797 25.843 164.737C24.1421 165.677 22.7205 167.008 21.7234 168.593C18.1763 174.261 15.0873 179.762 12.5416 185.016C11.3304 187.52 11.2219 190.323 12.2398 192.807C13.2578 195.292 15.3188 197.255 17.9695 198.264C20.6203 199.273 23.6436 199.247 26.3743 198.19C29.1051 197.133 31.3197 195.133 32.5308 192.629C34.4986 188.553 36.9066 184.19 39.7513 179.58C48.1028 192.778 59.5214 204.015 73.2241 212.521C71.629 214.37 70.7388 216.64 70.7006 218.956C70.6625 221.272 71.4788 223.494 73.0145 225.257C74.5502 227.019 76.7134 228.215 79.1466 228.647C81.5797 229.079 84.1372 228.722 86.3962 227.634C89.4046 226.189 92.3854 224.691 95.3369 223.142C118.909 231.545 145.17 232.379 170.053 225.514ZM95.3369 223.142C87.543 220.365 80.1197 216.807 73.2241 212.521C74.2543 211.32 75.5634 210.331 77.0296 209.632C90.4729 203.178 105.484 194.422 121.233 183.675C123.63 182.039 126.588 181.323 129.456 181.686C132.324 182.049 134.867 183.46 136.526 185.608C138.184 187.757 138.823 190.468 138.301 193.144C137.779 195.82 136.139 198.243 133.741 199.879C120.489 208.921 107.548 216.761 95.3369 223.142ZM243.372 63.5617C243.135 63.8633 242.915 64.1756 242.712 64.4974C235.42 76.168 225.535 89.1923 213.373 102.883C211.483 105.015 210.552 107.719 210.784 110.398C211.016 113.077 212.392 115.512 214.611 117.168C216.829 118.824 219.708 119.566 222.613 119.229C225.518 118.892 228.212 117.505 230.103 115.372C238.566 105.89 246.476 96.0035 253.798 85.7594C251.263 77.9786 247.765 70.5313 243.372 63.5617ZM244.898 0.675707C243.431 0.718774 241.975 1.03357 240.615 1.60151C239.256 2.16945 238.021 2.97903 236.983 3.98246C235.945 4.98589 235.125 6.16285 234.573 7.44385C234.02 8.72484 233.745 10.0839 233.764 11.4409C233.783 12.7978 234.096 14.1251 234.684 15.3444C235.272 16.5637 236.123 17.6504 237.187 18.5401C238.252 19.4299 239.508 20.1048 240.881 20.5251C242.254 20.9453 243.717 21.1023 245.183 20.9868C251.112 20.6605 253.767 21.8749 254.883 22.8265C256.142 23.9068 258.077 27.0654 256.032 35.7596C255.405 38.4205 255.934 41.1555 257.503 43.3629C259.072 45.5704 261.553 47.0695 264.4 47.5304C267.246 47.9914 270.226 47.3764 272.682 45.8208C275.139 44.2652 276.871 41.8964 277.499 39.2356C280.163 27.8979 279.615 15.5966 270.119 7.53804C263.272 1.72973 254.006 0.190273 244.898 0.675707ZM26.2048 212.559C26.386 209.859 25.4043 207.252 23.4755 205.311C21.5467 203.369 18.8289 202.253 15.9199 202.208C13.011 202.163 10.1492 203.191 7.96417 205.068C5.77912 206.945 4.44977 209.516 4.26857 212.216C3.6975 220.772 5.76951 229.441 12.9581 235.547C21.9741 243.192 35.1111 243.53 47.4322 241.283C48.8752 241.04 50.2647 240.536 51.5199 239.8C52.7751 239.064 53.8709 238.11 54.7435 236.994C55.6162 235.879 56.2483 234.623 56.603 233.301C56.9578 231.979 57.0282 230.617 56.81 229.293C56.5919 227.97 56.0896 226.712 55.3324 225.592C54.5752 224.473 53.5782 223.514 52.3993 222.772C51.2205 222.03 49.8834 221.52 48.4658 221.271C47.0482 221.022 45.5784 221.039 44.1419 221.321C34.0477 223.167 29.723 221.544 28.1907 220.245C27.1952 219.4 25.8719 217.471 26.2048 212.559ZM204.447 142.071C205.498 141.089 206.336 139.933 206.913 138.668C207.491 137.404 207.795 136.056 207.809 134.705C207.822 133.355 207.545 132.027 206.993 130.8C206.442 129.573 205.626 128.471 204.595 127.559C203.563 126.647 202.337 125.943 200.986 125.489C199.636 125.034 198.189 124.837 196.73 124.91C195.271 124.983 193.829 125.324 192.488 125.914C191.147 126.503 189.935 127.329 188.921 128.343C176.815 140.041 164.112 151.197 150.86 161.77C148.691 163.591 147.337 166.094 147.088 168.745C146.838 171.396 147.713 173.986 149.526 175.962C151.339 177.938 153.946 179.144 156.792 179.323C159.638 179.503 162.497 178.641 164.761 176.922C178.573 165.893 191.818 154.261 204.447 142.071Z" fill="#FDD127"/>
</g>
<defs>
<filter id="filter0_d_389_55" x="0.178711" y="0.591949" width="282.703" height="249.901" filterUnits="userSpaceOnUse" color-interpolation-filters="sRGB">
<feFlood flood-opacity="0" result="BackgroundImageFix"/>
<feColorMatrix in="SourceAlpha" type="matrix" values="0 0 0 0 0 0 0 0 0 0 0 0 0 0 0 0 0 0 127 0" result="hardAlpha"/>
<feOffset dy="4"/>
<feGaussianBlur stdDeviation="2"/>
<feComposite in2="hardAlpha" operator="out"/>
<feColorMatrix type="matrix" values="0 0 0 0 0 0 0 0 0 0 0 0 0 0 0 0 0 0 0.25 0"/>
<feBlend mode="normal" in2="BackgroundImageFix" result="effect1_dropShadow_389_55"/>
<feBlend mode="normal" in="SourceGraphic" in2="effect1_dropShadow_389_55" result="shape"/>
</filter>
</defs>
</svg>
