<svg width="546" height="300" viewBox="0 0 546 300" fill="none" xmlns="http://www.w3.org/2000/svg">
<path d="M489.953 127.203C489.953 127.203 489.914 127.203 489.899 127.203C489.93 126.43 489.953 125.656 489.953 124.883C489.953 90.2792 458.613 62.2344 419.957 62.2344C411.789 62.2344 403.947 63.4873 396.661 65.7922C389.151 38.4357 361.57 18.1484 328.691 18.1484C316.262 18.1484 304.599 21.0488 294.482 26.1303C281.659 13.1675 262.934 5 242.066 5C212.134 5 186.588 21.8223 176.587 45.474C168.822 42.8133 160.391 41.3515 151.574 41.3515C112.918 41.3515 81.578 69.3964 81.578 104C81.578 104.093 81.578 104.186 81.578 104.278C79.4124 104.101 77.2158 104 74.9961 104C36.3397 104 5 132.045 5 166.648C5 198.22 31.0958 224.331 65.0342 228.663C61.5228 232.445 59.4113 237.294 59.4113 242.592C59.4113 244.41 59.6665 246.181 60.1306 247.875C50.2306 248.184 42.3106 255.454 42.3106 264.388C42.3106 268.974 44.3989 273.12 47.7633 276.113C44.4066 277.76 42.125 280.947 42.125 284.621C42.125 289.973 46.9744 294.312 52.9531 294.312C58.9318 294.312 63.7812 289.973 63.7812 284.621C63.7812 283.267 63.4719 281.976 62.9072 280.808C72.1034 279.864 79.25 272.872 79.25 264.388C79.25 264.264 79.25 264.14 79.2422 264.016C80.7118 264.264 82.2277 264.395 83.7746 264.395C96.8843 264.395 107.566 255.13 108.115 243.52C120.768 259.701 141.751 270.289 165.496 270.289C185.234 270.289 203.062 262.972 215.785 251.216C227.572 259.298 242.314 264.101 258.308 264.101C271.82 264.101 284.427 260.675 295.124 254.743C307.955 268.943 327.577 278.023 349.574 278.023C381.571 278.023 408.549 258.811 416.902 232.576C419.779 233.025 422.741 233.272 425.758 233.272C442.998 233.272 458.227 225.615 467.469 213.905C474.252 216.891 481.886 218.577 489.953 218.577C518.145 218.577 541 198.12 541 172.89C541 147.66 518.145 127.203 489.953 127.203Z" fill="#FCF6BD"/>
<path d="M497.61 127.713C495.111 127.373 492.551 127.203 489.953 127.203C489.937 127.203 489.914 127.203 489.898 127.203C489.929 126.43 489.953 125.656 489.953 124.883C489.953 123.065 489.867 121.263 489.697 119.476" stroke="#FEE440" stroke-width="10" stroke-miterlimit="10" stroke-linecap="round"/>
<path d="M485.815 103.606C476.085 79.482 450.268 62.2344 419.957 62.2344C417.343 62.2344 414.767 62.3659 412.23 62.6134" stroke="#FEE440" stroke-width="10" stroke-miterlimit="10" stroke-linecap="round"/>
<path d="M404.139 63.8432C401.587 64.3691 399.096 65.0265 396.66 65.7922C395.971 63.294 395.121 60.8577 394.115 58.491" stroke="#FEE440" stroke-width="10" stroke-miterlimit="10" stroke-linecap="round"/>
<path d="M386.226 45.1182C373.588 28.8219 352.535 18.1484 328.69 18.1484C321.853 18.1484 315.24 19.0302 308.998 20.6621" stroke="#FEE440" stroke-width="10" stroke-miterlimit="10" stroke-linecap="round"/>
<path d="M301.566 23.0286C299.129 23.949 296.77 24.9854 294.481 26.1301C292.679 24.3125 290.761 22.58 288.734 20.9558" stroke="#FEE440" stroke-width="10" stroke-miterlimit="10" stroke-linecap="round"/>
<path d="M277.202 13.4614C266.876 8.08601 254.873 5 242.064 5C217.802 5 196.424 16.0524 183.863 32.836" stroke="#FEE440" stroke-width="10" stroke-miterlimit="10" stroke-linecap="round"/>
<path d="M180.058 38.5671C178.751 40.7946 177.591 43.0995 176.585 45.4739C174.172 44.6464 171.689 43.9348 169.152 43.347" stroke="#FEE440" stroke-width="10" stroke-miterlimit="10" stroke-linecap="round"/>
<path d="M152.941 41.367C152.485 41.3593 152.029 41.3516 151.572 41.3516C118.871 41.3516 91.4067 61.4223 83.7188 88.5544" stroke="#FEE440" stroke-width="10" stroke-miterlimit="10" stroke-linecap="round"/>
<path d="M82.0634 96.5671C81.7386 99.0035 81.5762 101.486 81.5762 104C81.5762 104.093 81.5762 104.185 81.5762 104.278C79.4105 104.1 77.214 104 74.9942 104C74.6075 104 74.2285 104 73.8418 104.008" stroke="#FEE440" stroke-width="10" stroke-miterlimit="10" stroke-linecap="round"/>
<path d="M59.3708 105.57C28.2322 111.927 5.00586 136.855 5.00586 166.648C5.00586 193.51 23.8932 216.411 50.4221 225.321" stroke="#FEE440" stroke-width="10" stroke-miterlimit="10" stroke-linecap="round"/>
<path d="M57.4277 227.301C59.9105 227.874 62.4551 228.33 65.0384 228.663C63.2672 230.573 61.8441 232.754 60.8773 235.136" stroke="#FEE440" stroke-width="10" stroke-miterlimit="10" stroke-linecap="round"/>
<path d="M59.557 240.21C59.4641 240.991 59.41 241.788 59.41 242.6C59.41 244.417 59.6652 246.189 60.1293 247.882C57.4455 247.968 54.9009 248.563 52.627 249.569" stroke="#FEE440" stroke-width="10" stroke-miterlimit="10" stroke-linecap="round"/>
<path d="M46.0618 254.41C43.7105 257.179 42.3184 260.637 42.3184 264.388C42.3184 264.883 42.3416 265.378 42.388 265.857" stroke="#FEE440" stroke-width="10" stroke-miterlimit="10" stroke-linecap="round"/>
<path d="M43.3445 269.848C44.2803 272.23 45.804 274.365 47.7608 276.113C45.3477 277.296 43.4914 279.276 42.6406 281.659" stroke="#FEE440" stroke-width="10" stroke-miterlimit="10" stroke-linecap="round"/>
<path d="M45.0781 291.265C47.0504 293.136 49.8502 294.312 52.9595 294.312C55.4731 294.312 57.7934 293.546 59.6265 292.255" stroke="#FEE440" stroke-width="10" stroke-miterlimit="10" stroke-linecap="round"/>
<path d="M62.9837 288.295C63.5019 287.158 63.788 285.92 63.788 284.621C63.788 283.321 63.4787 281.976 62.9141 280.808C65.5824 280.537 68.0729 279.756 70.2694 278.573" stroke="#FEE440" stroke-width="10" stroke-miterlimit="10" stroke-linecap="round"/>
<path d="M77.4863 271.465C78.6233 269.322 79.2575 266.925 79.2575 264.388C79.2575 264.264 79.2575 264.14 79.2498 264.017C80.7193 264.264 82.2352 264.396 83.7821 264.396C84.8572 264.396 85.9245 264.334 86.9609 264.21" stroke="#FEE440" stroke-width="10" stroke-miterlimit="10" stroke-linecap="round"/>
<path d="M94.7793 262.052C98.6155 260.312 101.864 257.69 104.2 254.48" stroke="#FEE440" stroke-width="10" stroke-miterlimit="10" stroke-linecap="round"/>
<path d="M106.264 250.984C107.339 248.672 107.988 246.158 108.112 243.521C109.69 245.539 111.399 247.473 113.232 249.314" stroke="#FEE440" stroke-width="10" stroke-miterlimit="10" stroke-linecap="round"/>
<path d="M124.92 258.695C136.367 265.996 150.366 270.289 165.494 270.289C179.525 270.289 192.588 266.592 203.54 260.234" stroke="#FEE440" stroke-width="10" stroke-miterlimit="10" stroke-linecap="round"/>
<path d="M209.812 256.127C211.909 254.596 213.896 252.948 215.776 251.216C217.887 252.662 220.091 254.008 222.381 255.23" stroke="#FEE440" stroke-width="10" stroke-miterlimit="10" stroke-linecap="round"/>
<path d="M234.902 260.513C242.219 262.833 250.1 264.101 258.307 264.101C266.513 264.101 274.448 262.825 281.788 260.482" stroke="#FEE440" stroke-width="10" stroke-miterlimit="10" stroke-linecap="round"/>
<path d="M288.168 258.123C290.566 257.11 292.886 255.981 295.121 254.735C296.838 256.638 298.679 258.448 300.628 260.157" stroke="#FEE440" stroke-width="10" stroke-miterlimit="10" stroke-linecap="round"/>
<path d="M312.633 268.595C323.353 274.566 336.014 278.023 349.572 278.023C375.707 278.023 398.5 265.2 410.527 246.197" stroke="#FEE440" stroke-width="10" stroke-miterlimit="10" stroke-linecap="round"/>
<path d="M414.062 239.769C415.161 237.441 416.112 235.044 416.893 232.576C419.407 232.971 421.975 233.211 424.597 233.265" stroke="#FEE440" stroke-width="10" stroke-miterlimit="10" stroke-linecap="round"/>
<path d="M438.16 231.911C445.051 230.372 451.394 227.572 456.854 223.805" stroke="#FEE440" stroke-width="10" stroke-miterlimit="10" stroke-linecap="round"/>
<path d="M462.199 219.567C464.117 217.811 465.881 215.924 467.466 213.913C469.802 214.942 472.231 215.808 474.744 216.512" stroke="#FEE440" stroke-width="10" stroke-miterlimit="10" stroke-linecap="round"/>
<path d="M489.086 218.577C489.372 218.577 489.666 218.577 489.952 218.577C518.144 218.577 540.999 198.119 540.999 172.89C540.999 152.255 525.716 134.814 504.725 129.144" stroke="#FEE440" stroke-width="10" stroke-miterlimit="10" stroke-linecap="round"/>
</svg>
