<svg width="209" height="199" viewBox="0 0 209 199" fill="none" xmlns="http://www.w3.org/2000/svg">
<g filter="url(#filter0_d_389_66)">
<path fill-rule="evenodd" clip-rule="evenodd" d="M81.6937 41.6802C59.8373 39.9227 42.5991 43.761 36.5585 53.2441C26.1533 69.5421 52.7172 96.362 95.9021 113.144C139.078 129.93 182.516 130.33 192.922 114.032C198.973 104.553 192.511 91.5135 177.56 78.9616C175.871 79.7904 173.938 80.4618 171.734 80.8341C163.096 82.3123 148.407 81.3692 122.592 71.3396C96.7834 61.3 86.9711 52.7178 83.2807 46.4469C82.4122 44.9872 81.8728 43.377 81.6873 41.6902M117.25 94.9789C116.669 95.9246 115.885 96.7836 114.943 97.506C114.002 98.2284 112.922 98.7996 111.767 99.1863C110.612 99.573 109.404 99.7674 108.215 99.7583C107.026 99.7491 105.879 99.5366 104.841 99.133C103.803 98.7294 102.894 98.1429 102.169 97.4076C101.443 96.6724 100.915 95.8032 100.614 94.8507C100.314 93.8983 100.248 92.8816 100.42 91.8601C100.592 90.8385 100.999 89.8326 101.616 88.9009C102.835 87.0612 104.802 85.6207 107.094 84.8897C109.386 84.1587 111.818 84.1956 113.868 84.9926C115.918 85.7895 117.422 87.2827 118.054 89.1506C118.687 91.0184 118.398 93.1114 117.25 94.9789ZM70.3431 76.7308C71.3706 77.1506 72.5108 77.3807 73.6972 77.4076C74.8835 77.4345 76.0922 77.2577 77.2528 76.8875C78.4133 76.5173 79.5025 75.9612 80.4567 75.2514C81.4109 74.5417 82.211 73.6927 82.8104 72.7539C83.4097 71.8151 83.7964 70.8053 83.9477 69.7834C84.099 68.7616 84.0119 67.7482 83.6916 66.8023C83.3713 65.8564 82.8242 64.997 82.0821 64.2742C81.34 63.5514 80.4179 62.9797 79.3695 62.5925C77.2992 61.8279 74.861 61.8273 72.5799 62.5909C70.2989 63.3545 68.3575 64.8212 67.1739 66.675C65.9903 68.5289 65.6593 70.6216 66.252 72.5024C66.8448 74.3833 68.3139 75.9017 70.3431 76.7308ZM160.864 103.092C160.282 104.037 159.498 104.897 158.557 105.619C157.615 106.341 156.535 106.912 155.38 107.299C154.225 107.686 153.018 107.88 151.829 107.871C150.639 107.862 149.492 107.649 148.454 107.246C147.416 106.842 146.508 106.256 145.782 105.52C145.056 104.785 144.528 103.916 144.228 102.964C143.928 102.011 143.862 100.994 144.034 99.9729C144.206 98.9514 144.612 97.9454 145.229 97.0138C146.449 95.1741 148.416 93.7336 150.707 93.0025C152.999 92.2715 155.432 92.3085 157.482 93.1054C159.532 93.9024 161.035 95.3956 161.668 97.2634C162.3 99.1313 162.011 101.224 160.864 103.092Z" fill="white"/>
</g>
<g filter="url(#filter1_d_389_66)">
<path d="M99.3144 38.1917C105.89 31.5085 114.69 26.6752 124.27 24.4857C133.85 22.2962 143.64 22.8808 152.032 26.1434L156.275 27.7869C164.666 31.0503 171.159 36.7975 174.688 44.0843C178.217 51.3711 178.571 59.7643 175.694 67.885C175.369 68.0225 175.028 68.1232 174.682 68.1842C170.146 68.9545 158.392 69.0776 133.45 59.3876C108.515 49.6876 101.564 42.2987 99.618 39.0024C99.471 38.7501 99.3688 38.4772 99.3144 38.1917ZM50.2114 109.461C50.5785 108.738 50.7824 107.977 50.8115 107.222C50.8407 106.466 50.6944 105.731 50.381 105.057C50.0677 104.384 49.5935 103.786 48.9854 103.297C48.3773 102.808 47.6473 102.438 46.8371 102.208C46.0269 101.979 45.1523 101.893 44.2632 101.958C43.3741 102.022 42.4881 102.235 41.6555 102.583C40.823 102.932 40.0604 103.409 39.4111 103.989C38.7619 104.569 38.2388 105.239 37.8717 105.962L24.838 131.64C24.1248 133.092 24.0824 134.659 24.7199 136.002C25.3574 137.345 26.6236 138.356 28.2444 138.816C29.8653 139.277 31.7104 139.149 33.3806 138.462C35.0508 137.774 36.4118 136.582 37.169 135.142L50.2114 109.461ZM92.3104 135.294C93.1705 133.893 93.3862 132.323 92.911 130.923C92.4359 129.522 91.3078 128.403 89.7699 127.806C88.232 127.208 86.4072 127.181 84.6887 127.73C82.9701 128.279 81.4952 129.36 80.5816 130.74L54.2725 171.938C53.4109 173.338 53.1935 174.908 53.6671 176.309C54.1406 177.711 55.2673 178.831 56.8044 179.429C58.3415 180.028 60.166 180.056 61.885 179.509C63.604 178.961 65.0799 177.881 65.9949 176.502L92.3104 135.294ZM141.814 139.132C143.272 139.871 144.255 141.113 144.547 142.582C144.839 144.052 144.416 145.63 143.372 146.97L124.956 170.562C124.438 171.226 123.782 171.812 123.027 172.285C122.272 172.758 121.431 173.11 120.553 173.32C119.676 173.531 118.778 173.596 117.912 173.511C117.046 173.427 116.228 173.195 115.504 172.829C114.781 172.462 114.167 171.969 113.698 171.376C113.228 170.784 112.912 170.104 112.767 169.375C112.622 168.647 112.651 167.884 112.853 167.13C113.055 166.377 113.426 165.647 113.944 164.983L132.362 141.398C132.879 140.734 133.534 140.148 134.289 139.674C135.044 139.2 135.884 138.847 136.762 138.636C137.639 138.425 138.537 138.36 139.403 138.443C140.27 138.527 141.09 138.766 141.814 139.132Z" fill="white"/>
</g>
<g filter="url(#filter2_d_389_66)">
<path fill-rule="evenodd" clip-rule="evenodd" d="M81.6937 34.6802C59.8373 32.9227 42.5991 36.761 36.5585 46.2441C26.1533 62.5421 52.7172 89.362 95.9021 106.144C139.078 122.93 182.516 123.33 192.922 107.032C198.973 97.5532 192.511 84.5135 177.56 71.9616C175.871 72.7904 173.938 73.4618 171.734 73.8341C163.096 75.3123 148.407 74.3692 122.592 64.3396C96.7834 54.3 86.9711 45.7178 83.2807 39.4469C82.4122 37.9872 81.8728 36.377 81.6873 34.6902M117.25 87.9789C116.669 88.9246 115.885 89.7836 114.943 90.506C114.002 91.2284 112.922 91.7996 111.767 92.1863C110.612 92.573 109.404 92.7674 108.215 92.7583C107.026 92.7491 105.879 92.5366 104.841 92.133C103.803 91.7294 102.894 91.1429 102.169 90.4076C101.443 89.6724 100.915 88.8032 100.614 87.8507C100.314 86.8983 100.248 85.8816 100.42 84.8601C100.592 83.8385 100.999 82.8326 101.616 81.9009C102.835 80.0612 104.802 78.6207 107.094 77.8897C109.386 77.1587 111.818 77.1956 113.868 77.9926C115.918 78.7895 117.422 80.2827 118.054 82.1506C118.687 84.0184 118.398 86.1114 117.25 87.9789ZM70.3431 69.7308C71.3706 70.1506 72.5108 70.3807 73.6972 70.4076C74.8835 70.4345 76.0922 70.2577 77.2528 69.8875C78.4133 69.5173 79.5025 68.9612 80.4567 68.2514C81.4109 67.5417 82.211 66.6927 82.8104 65.7539C83.4097 64.8151 83.7964 63.8053 83.9477 62.7834C84.099 61.7616 84.0119 60.7482 83.6916 59.8023C83.3713 58.8564 82.8242 57.997 82.0821 57.2742C81.34 56.5514 80.4179 55.9797 79.3695 55.5925C77.2992 54.8279 74.861 54.8273 72.5799 55.5909C70.2989 56.3545 68.3575 57.8212 67.1739 59.675C65.9903 61.5289 65.6593 63.6216 66.252 65.5024C66.8448 67.3833 68.3139 68.9017 70.3431 69.7308ZM160.864 96.0917C160.282 97.0374 159.498 97.8965 158.557 98.6189C157.615 99.3413 156.535 99.9125 155.38 100.299C154.225 100.686 153.018 100.88 151.829 100.871C150.639 100.862 149.492 100.649 148.454 100.246C147.416 99.8422 146.508 99.2557 145.782 98.5205C145.056 97.7853 144.528 96.9161 144.228 95.9636C143.928 95.0111 143.862 93.9945 144.034 92.9729C144.206 91.9514 144.612 90.9454 145.229 90.0138C146.449 88.1741 148.416 86.7336 150.707 86.0025C152.999 85.2715 155.432 85.3085 157.482 86.1054C159.532 86.9024 161.035 88.3956 161.668 90.2634C162.3 92.1313 162.011 94.2243 160.864 96.0917Z" fill="#7CFA73"/>
</g>
<g filter="url(#filter3_d_389_66)">
<path d="M99.3144 31.1917C105.89 24.5085 114.69 19.6752 124.27 17.4857C133.85 15.2962 143.64 15.8808 152.032 19.1434L156.275 20.7869C164.666 24.0503 171.159 29.7975 174.688 37.0843C178.217 44.3711 178.571 52.7643 175.694 60.885C175.369 61.0225 175.028 61.1232 174.682 61.1842C170.146 61.9545 158.392 62.0776 133.45 52.3876C108.515 42.6876 101.564 35.2987 99.618 32.0024C99.471 31.7501 99.3688 31.4772 99.3144 31.1917ZM50.2114 102.461C50.5785 101.738 50.7824 100.977 50.8115 100.222C50.8407 99.4663 50.6944 98.7308 50.381 98.0574C50.0677 97.3839 49.5935 96.7857 48.9854 96.2969C48.3773 95.808 47.6473 95.4382 46.8371 95.2084C46.0269 94.9787 45.1523 94.8935 44.2632 94.9578C43.3741 95.022 42.4881 95.2345 41.6555 95.583C40.823 95.9315 40.0604 96.4093 39.4111 96.989C38.7619 97.5687 38.2388 98.239 37.8717 98.9617L24.838 124.64C24.1248 126.092 24.0824 127.659 24.7199 129.002C25.3574 130.345 26.6236 131.356 28.2444 131.816C29.8653 132.277 31.7104 132.149 33.3806 131.462C35.0508 130.774 36.4118 129.582 37.169 128.142L50.2114 102.461ZM92.3104 128.294C93.1705 126.893 93.3862 125.323 92.911 123.923C92.4359 122.522 91.3078 121.403 89.7699 120.806C88.232 120.208 86.4072 120.181 84.6887 120.73C82.9701 121.279 81.4952 122.36 80.5816 123.74L54.2725 164.938C53.4109 166.338 53.1935 167.908 53.6671 169.309C54.1406 170.711 55.2673 171.831 56.8044 172.429C58.3415 173.028 60.166 173.056 61.885 172.509C63.604 171.961 65.0799 170.881 65.9949 169.502L92.3104 128.294ZM141.814 132.132C143.272 132.871 144.255 134.113 144.547 135.582C144.839 137.052 144.416 138.63 143.372 139.97L124.956 163.562C124.438 164.226 123.782 164.812 123.027 165.285C122.272 165.758 121.431 166.11 120.553 166.32C119.676 166.531 118.778 166.596 117.912 166.511C117.046 166.427 116.228 166.195 115.504 165.829C114.781 165.462 114.167 164.969 113.698 164.376C113.228 163.784 112.912 163.104 112.767 162.375C112.622 161.647 112.651 160.884 112.853 160.13C113.055 159.377 113.426 158.647 113.944 157.983L132.362 134.398C132.879 133.734 133.534 133.148 134.289 132.674C135.044 132.2 135.884 131.847 136.762 131.636C137.639 131.425 138.537 131.36 139.403 131.443C140.27 131.527 141.09 131.766 141.814 132.132Z" fill="#7CFA73"/>
</g>
<defs>
<filter id="filter0_d_389_66" x="30.3018" y="41.2664" width="168.875" height="92.7327" filterUnits="userSpaceOnUse" color-interpolation-filters="sRGB">
<feFlood flood-opacity="0" result="BackgroundImageFix"/>
<feColorMatrix in="SourceAlpha" type="matrix" values="0 0 0 0 0 0 0 0 0 0 0 0 0 0 0 0 0 0 127 0" result="hardAlpha"/>
<feOffset dy="4"/>
<feGaussianBlur stdDeviation="2"/>
<feComposite in2="hardAlpha" operator="out"/>
<feColorMatrix type="matrix" values="0 0 0 0 0 0 0 0 0 0 0 0 0 0 0 0 0 0 0.25 0"/>
<feBlend mode="normal" in2="BackgroundImageFix" result="effect1_dropShadow_389_66"/>
<feBlend mode="normal" in="SourceGraphic" in2="effect1_dropShadow_389_66" result="shape"/>
</filter>
<filter id="filter1_d_389_66" x="20.2705" y="23.1837" width="161.35" height="164.716" filterUnits="userSpaceOnUse" color-interpolation-filters="sRGB">
<feFlood flood-opacity="0" result="BackgroundImageFix"/>
<feColorMatrix in="SourceAlpha" type="matrix" values="0 0 0 0 0 0 0 0 0 0 0 0 0 0 0 0 0 0 127 0" result="hardAlpha"/>
<feOffset dy="4"/>
<feGaussianBlur stdDeviation="2"/>
<feComposite in2="hardAlpha" operator="out"/>
<feColorMatrix type="matrix" values="0 0 0 0 0 0 0 0 0 0 0 0 0 0 0 0 0 0 0.25 0"/>
<feBlend mode="normal" in2="BackgroundImageFix" result="effect1_dropShadow_389_66"/>
<feBlend mode="normal" in="SourceGraphic" in2="effect1_dropShadow_389_66" result="shape"/>
</filter>
<filter id="filter2_d_389_66" x="30.3018" y="34.2664" width="168.875" height="92.7327" filterUnits="userSpaceOnUse" color-interpolation-filters="sRGB">
<feFlood flood-opacity="0" result="BackgroundImageFix"/>
<feColorMatrix in="SourceAlpha" type="matrix" values="0 0 0 0 0 0 0 0 0 0 0 0 0 0 0 0 0 0 127 0" result="hardAlpha"/>
<feOffset dy="4"/>
<feGaussianBlur stdDeviation="2"/>
<feComposite in2="hardAlpha" operator="out"/>
<feColorMatrix type="matrix" values="0 0 0 0 0 0 0 0 0 0 0 0 0 0 0 0 0 0 0.25 0"/>
<feBlend mode="normal" in2="BackgroundImageFix" result="effect1_dropShadow_389_66"/>
<feBlend mode="normal" in="SourceGraphic" in2="effect1_dropShadow_389_66" result="shape"/>
</filter>
<filter id="filter3_d_389_66" x="20.2705" y="16.1837" width="161.35" height="164.716" filterUnits="userSpaceOnUse" color-interpolation-filters="sRGB">
<feFlood flood-opacity="0" result="BackgroundImageFix"/>
<feColorMatrix in="SourceAlpha" type="matrix" values="0 0 0 0 0 0 0 0 0 0 0 0 0 0 0 0 0 0 127 0" result="hardAlpha"/>
<feOffset dy="4"/>
<feGaussianBlur stdDeviation="2"/>
<feComposite in2="hardAlpha" operator="out"/>
<feColorMatrix type="matrix" values="0 0 0 0 0 0 0 0 0 0 0 0 0 0 0 0 0 0 0.25 0"/>
<feBlend mode="normal" in2="BackgroundImageFix" result="effect1_dropShadow_389_66"/>
<feBlend mode="normal" in="SourceGraphic" in2="effect1_dropShadow_389_66" result="shape"/>
</filter>
</defs>
</svg>
